<?xml version="1.0" standalone="no"?>
<!DOCTYPE svg PUBLIC "-//W3C//DTD SVG 20010904//EN"
 "http://www.w3.org/TR/2001/REC-SVG-20010904/DTD/svg10.dtd">
<svg version="1.0" xmlns="http://www.w3.org/2000/svg"
 width="500.000000pt" height="500.000000pt" viewBox="0 0 500.000000 500.000000"
 preserveAspectRatio="xMidYMid meet">

<g transform="translate(0.000000,500.000000) scale(0.100000,-0.100000)"
fill="#000000" stroke="none">
<path d="M2235 4110 c-191 -34 -325 -78 -484 -160 -434 -223 -746 -634 -853
-1124 -19 -87 -22 -131 -22 -326 0 -195 3 -239 22 -326 140 -643 614 -1122
1257 -1270 102 -23 149 -28 313 -32 171 -4 195 -2 211 12 15 14 20 14 25 4 3
-7 4 -4 3 7 -1 13 3 19 13 17 11 -3 11 1 -3 16 -9 10 -14 21 -11 25 4 3 4 14
0 23 -4 11 -10 14 -16 8 -13 -13 -318 -9 -415 5 -426 63 -830 326 -1067 697
-84 131 -168 342 -205 514 -26 122 -26 478 0 600 133 625 628 1105 1242 1205
93 15 434 23 455 10 6 -4 9 -1 8 7 -2 7 4 12 12 10 13 -3 13 -1 -1 15 -8 10
-14 30 -13 45 1 20 -3 25 -17 23 -10 -2 -21 0 -24 6 -11 16 -321 9 -430 -11z
m463 -43 c0 -20 -5 -34 -12 -34 -8 0 -12 14 -10 36 2 44 2 43 13 37 5 -3 9
-21 9 -39z m0 -3122 c0 -19 -5 -39 -12 -44 -9 -8 -12 -2 -11 22 0 29 10 57 20
57 1 0 3 -16 3 -35z"/>
<path d="M2420 3914 c-182 -19 -247 -30 -340 -61 -448 -148 -780 -472 -924
-903 -52 -156 -70 -269 -70 -450 0 -182 18 -296 71 -450 144 -423 472 -751
893 -893 153 -52 370 -80 531 -70 l85 6 -2 136 c-2 157 -1 148 -14 135 -5 -5
-25 -8 -44 -6 -32 4 -34 6 -40 55 -12 103 -12 105 39 109 25 2 49 0 53 -4 4
-4 7 66 7 157 0 90 -2 162 -5 160 -3 -2 -5 -67 -5 -145 0 -87 -3 -145 -10
-150 -7 -6 -10 40 -10 151 l0 159 -25 1 c-18 1 -20 3 -7 6 10 3 26 1 35 -3 26
-11 76 -4 88 12 7 8 29 14 56 14 35 0 50 6 68 25 13 14 20 25 15 25 -4 0 -13
-7 -19 -15 -6 -8 -51 -20 -108 -30 -114 -18 -141 -19 -133 -5 3 5 0 7 -9 4 -8
-3 -16 2 -19 13 -4 15 -5 14 -6 -4 0 -12 -6 -25 -12 -29 -8 -4 -7 -9 2 -15 9
-5 -14 -9 -59 -9 -56 0 -74 3 -78 15 -5 12 -10 13 -19 5 -9 -8 -53 -10 -127
-6 -183 8 -181 8 -206 69 -11 28 -12 29 -7 5 l5 -28 -61 0 c-49 0 -60 3 -56
14 4 9 -2 17 -14 21 -10 4 -17 10 -14 15 7 11 -33 25 -61 21 -11 -1 -43 14
-70 34 -27 19 -57 38 -66 41 -10 4 -18 14 -19 23 0 13 -2 13 -8 -2 -6 -18 -7
-18 -23 0 -19 22 -30 66 -30 118 0 22 -2 33 -5 25 -15 -45 -15 -46 -23 -25
-12 28 -12 67 0 60 5 -3 2 11 -6 31 -14 33 -14 41 0 84 14 43 14 51 1 78 -10
19 -15 51 -13 85 3 47 1 53 -14 49 -9 -2 -25 -14 -35 -25 -18 -22 -18 -22 3
-4 11 9 22 17 25 17 2 0 5 -22 7 -49 2 -40 -1 -54 -21 -75 -13 -14 -36 -30
-51 -36 -28 -10 -28 -10 -22 17 4 16 8 43 9 61 2 18 9 37 16 41 7 5 12 12 10
16 -1 4 10 22 24 41 15 18 27 42 27 53 0 11 7 26 15 35 15 15 76 36 103 36 7
0 11 4 7 9 -9 16 9 21 93 27 63 4 88 2 114 -11 l33 -16 -28 25 c-15 15 -39 26
-52 26 -13 0 -27 5 -30 10 -8 12 36 30 75 30 27 0 29 2 24 30 -7 33 -1 36 35
16 33 -19 59 -9 63 23 2 20 9 27 31 29 24 3 27 0 27 -27 0 -27 -4 -31 -26 -31
-14 0 -23 -4 -19 -10 3 -5 15 -10 25 -10 10 0 24 -8 29 -17 9 -16 10 -16 11 3
0 27 107 65 121 42 17 -26 3 -43 -51 -60 -51 -17 -52 -18 -15 -14 22 3 50 8
63 12 19 5 22 3 22 -20 0 -15 -7 -29 -15 -32 -8 -4 -15 -11 -15 -16 0 -6 7 -8
15 -4 18 6 19 2 4 -26 -7 -13 -7 -24 -1 -30 6 -6 14 2 22 22 14 34 109 125
137 132 10 2 31 2 47 -2 l29 -5 -25 -13 c-49 -27 -61 -64 -55 -173 l6 -98 -37
16 c-26 11 -55 14 -98 10 l-61 -6 4 27 c3 26 3 26 -11 -4 -10 -20 -35 -43 -68
-62 -30 -16 -60 -37 -67 -46 -9 -10 -30 -16 -60 -17 -45 -1 -45 -1 -16 -11 17
-6 31 -12 33 -13 1 -1 -7 -22 -18 -46 -11 -24 -20 -58 -20 -75 0 -54 30 -134
66 -174 l36 -39 -28 -7 c-18 -5 -45 -1 -73 9 -34 12 -48 13 -62 4 -11 -7 -19
-15 -19 -18 0 -3 -20 -3 -45 1 -25 4 -45 3 -45 -2 0 -4 18 -8 40 -8 27 0 43
-5 46 -15 4 -8 14 -15 23 -15 10 0 49 -11 88 -24 l71 -24 6 23 c6 25 59 55 98
55 18 0 20 2 8 10 -13 9 -13 10 0 10 9 0 24 -6 35 -14 17 -12 207 -43 375 -62
30 -3 67 -10 83 -14 16 -5 27 -5 27 0 0 16 -37 30 -80 30 -36 0 -41 3 -35 18
3 9 9 31 11 47 l5 30 -15 -32 c-27 -59 -84 -55 -117 8 l-20 40 -19 -23 c-15
-18 -21 -21 -31 -11 -7 7 -21 13 -31 13 -9 0 -22 8 -28 18 -10 14 -11 13 -6
-8 l5 -25 -20 24 c-10 13 -19 32 -19 43 0 20 -4 20 -110 13 -76 -4 -110 -3
-110 4 0 11 13 15 83 26 21 3 35 10 32 16 -4 5 6 9 22 10 16 0 -3 8 -45 18
-40 10 -76 22 -80 26 -8 8 61 1 93 -10 11 -4 5 3 -13 15 -21 14 -30 26 -24 32
6 6 37 -4 81 -27 67 -33 73 -35 94 -20 48 33 111 17 326 -86 79 -38 146 -69
148 -69 1 0 3 5 3 10 0 6 -6 10 -14 10 -22 0 -26 78 -9 172 15 87 16 88 42 81
14 -3 27 -7 29 -9 2 -1 -6 -36 -17 -76 -28 -98 -26 -117 3 -45 13 31 31 69 41
83 l16 25 24 -23 c31 -29 31 -38 2 -38 -25 0 -67 -26 -67 -41 0 -5 11 -9 25
-9 28 0 32 -12 10 -30 -8 -6 -17 -22 -21 -33 -4 -12 -18 -36 -31 -54 -15 -19
-20 -34 -14 -38 6 -3 16 5 22 19 15 32 38 40 59 21 19 -17 47 -10 89 23 24 19
24 20 4 30 -11 6 -39 10 -61 9 -23 -2 -42 0 -42 4 0 13 28 29 59 33 17 2 40
11 51 21 14 13 20 14 20 5 0 -7 11 -28 26 -47 23 -30 29 -33 81 -33 40 0 66 6
92 23 19 12 45 27 56 32 30 15 48 62 51 128 2 39 8 63 18 70 34 26 46 110 24
164 -6 15 -10 51 -9 80 2 39 -2 54 -16 65 -10 7 -30 29 -45 49 -20 28 -42 41
-92 57 -37 12 -73 22 -80 22 -8 0 -28 24 -44 53 -45 78 -79 106 -144 117 -31
5 -66 6 -78 3 -15 -4 -30 3 -52 26 -22 23 -39 31 -65 31 -19 0 -43 5 -54 10
-14 8 -19 8 -17 -1 2 -7 -8 -13 -22 -14 l-25 -2 0 199 c0 125 -4 198 -10 198
-5 0 -11 -11 -13 -25 -3 -19 -9 -25 -29 -25 -21 0 -24 4 -20 23 3 12 9 47 12
78 4 31 10 61 13 66 8 13 53 20 68 11 14 -9 12 58 -3 73 -9 9 -11 8 -10 -2 2
-8 6 -19 10 -25 4 -7 1 -17 -6 -23 -19 -15 -16 51 3 74 14 17 24 182 11 189
-10 6 -204 14 -241 10z m-70 -205 c0 -10 -4 -19 -9 -19 -5 0 -16 -3 -25 -6
-12 -5 -16 0 -16 19 0 16 6 27 18 30 24 5 32 -1 32 -24z m75 6 c0 -13 -8 -21
-22 -23 -19 -3 -23 1 -23 23 0 22 4 26 23 23 14 -2 22 -10 22 -23z m125 5 c0
-17 -7 -20 -45 -20 -38 0 -45 3 -45 20 0 17 7 20 45 20 38 0 45 -3 45 -20z
m80 9 c0 -5 5 -7 12 -3 7 4 8 3 4 -5 -4 -6 -12 -9 -17 -6 -5 4 -9 -1 -9 -9 0
-9 -9 -16 -20 -16 -15 0 -20 7 -20 25 0 20 5 25 25 25 14 0 25 -5 25 -11z
m-360 -35 c0 -21 -4 -25 -22 -22 -15 2 -24 11 -26 26 -3 18 1 22 22 22 21 0
26 -5 26 -26z m-77 -14 c6 -24 -31 -40 -44 -19 -15 24 -10 39 15 39 15 0 26
-7 29 -20z m-75 -26 c5 -32 -33 -38 -46 -8 -8 17 -8 24 1 28 23 9 42 1 45 -20z
m-78 -8 c0 -2 3 -11 6 -19 3 -9 -3 -20 -15 -26 -17 -9 -22 -8 -31 9 -6 11 -8
25 -5 30 6 10 45 14 45 6z m418 -24 c7 -5 10 -16 6 -25 -4 -12 -14 -15 -34
-11 -22 5 -31 1 -39 -14 -27 -50 1 -98 50 -87 25 6 29 3 29 -14 0 -25 -57 -39
-89 -22 -59 32 -58 147 2 171 28 11 59 12 75 2z m82 -82 l0 -90 -26 0 c-27 0
-27 0 -20 61 3 34 6 75 6 90 0 22 5 29 20 29 19 0 20 -7 20 -90z m-570 60 c8
-15 6 -21 -9 -30 -17 -8 -22 -6 -32 11 -9 17 -8 23 2 30 21 13 27 11 39 -11z
m330 -9 c0 -13 -10 -20 -31 -25 -19 -3 -28 -10 -23 -17 3 -6 19 -9 35 -5 24 5
29 2 29 -14 0 -13 -9 -22 -26 -26 -39 -10 -28 -40 15 -36 27 3 32 1 29 -15 -2
-12 -17 -21 -46 -27 -23 -5 -45 -6 -48 -3 -9 9 -44 160 -39 165 5 5 65 20 88
21 10 1 17 -6 17 -18z m-400 -15 c0 -2 3 -11 6 -19 3 -9 -3 -20 -15 -26 -17
-9 -22 -8 -32 10 -9 17 -8 23 2 30 15 9 39 12 39 5z m254 -35 c13 -14 16 -28
12 -48 -6 -24 -2 -31 24 -46 35 -21 38 -33 10 -42 -13 -4 -30 1 -46 14 -35 28
-46 26 -34 -5 14 -35 13 -41 -9 -47 -18 -4 -29 16 -77 145 -4 13 3 21 28 32
46 20 72 19 92 -3z m-320 -18 c4 -9 0 -23 -9 -32 -13 -14 -16 -13 -29 4 -13
18 -13 21 1 33 22 16 30 15 37 -5z m-64 -48 c13 -16 6 -35 -14 -35 -8 0 -19 7
-27 16 -10 13 -10 17 2 25 19 12 25 11 39 -6z m-61 -49 c9 -10 8 -16 -4 -26
-13 -11 -19 -10 -33 4 -15 15 -15 18 -2 26 20 13 26 12 39 -4z m-59 -52 c11
-12 11 -18 -1 -30 -13 -12 -18 -12 -34 0 -16 12 -17 16 -6 30 17 20 25 20 41
0z m-52 -57 c7 -8 7 -17 -2 -29 -11 -15 -15 -16 -32 -4 -15 12 -16 16 -5 30
16 19 25 20 39 3z m-49 -60 c8 -10 7 -18 -2 -31 -11 -15 -15 -15 -32 -2 -16
12 -17 16 -6 30 16 19 25 20 40 3z m-39 -75 c-1 -23 -18 -34 -39 -23 -17 10
-19 15 -9 31 9 14 16 16 30 9 10 -5 18 -13 18 -17z m642 11 c19 -17 24 -43 8
-43 -5 0 -16 14 -25 30 -17 33 -11 38 17 13z m-71 -46 c-13 -13 -15 1 -4 30 7
17 8 17 11 -1 2 -10 -1 -23 -7 -29z m46 -9 c-19 -12 -27 -9 -27 10 0 28 11 34
26 14 9 -13 9 -19 1 -24z m84 -4 c11 -14 10 -18 -6 -30 -17 -13 -21 -13 -32 2
-9 13 -10 21 -2 31 15 17 24 16 40 -3z m-751 -9 c19 -22 -5 -48 -31 -34 -15 8
-17 14 -9 29 13 24 23 25 40 5z m620 -25 c0 -11 -7 -20 -15 -20 -15 0 -21 21
-8 33 12 13 23 7 23 -13z m74 4 c11 -28 7 -34 -24 -34 -22 0 -30 5 -30 18 0
10 3 22 7 25 12 13 41 7 47 -9z m94 -37 c4 -31 -34 -59 -49 -36 -14 22 -11 41
9 55 23 18 36 12 40 -19z m-829 -6 c8 -5 11 -16 7 -29 -6 -18 -10 -20 -31 -10
-20 9 -22 14 -14 29 11 21 18 23 38 10z m661 -40 c0 -34 -2 -38 -20 -34 -27 7
-32 17 -24 48 4 16 13 25 25 25 15 0 19 -7 19 -39z m101 11 c9 -24 -3 -34 -53
-46 -26 -6 -28 -4 -28 28 0 30 4 35 28 39 39 6 44 4 53 -21z m109 -39 c0 -7
-13 -19 -30 -28 -28 -14 -30 -14 -41 7 -10 19 -8 25 17 45 27 21 30 22 42 6 6
-9 12 -23 12 -30z m-890 -21 c0 -4 -4 -13 -9 -21 -7 -10 -13 -11 -30 -2 -17
10 -19 15 -11 32 9 15 15 17 30 9 11 -6 20 -14 20 -18z m800 9 c0 -5 3 -16 6
-24 5 -15 -9 -24 -63 -37 -27 -7 -33 -5 -39 12 -7 24 -2 29 39 44 41 15 57 16
57 5z m-112 -43 c2 -20 -1 -28 -12 -28 -30 0 -46 13 -46 37 0 21 4 24 28 21
21 -2 28 -9 30 -30z m226 16 c11 -27 7 -34 -30 -51 -31 -15 -36 -15 -44 -3
-16 24 -11 34 23 51 42 21 44 22 51 3z m-950 -43 c7 -10 -3 -41 -13 -41 -17 1
-33 20 -28 34 7 17 32 22 41 7z m856 -15 c0 -20 -7 -25 -44 -35 -61 -15 -66
-14 -66 12 0 19 8 26 38 34 61 17 72 16 72 -11z m130 -28 c0 -12 -62 -48 -82
-48 -12 0 -18 8 -18 25 0 18 10 30 38 44 34 18 38 18 50 3 6 -8 12 -20 12 -24z
m-1002 -33 c8 -7 -13 -35 -27 -35 -24 0 -30 8 -24 31 4 15 11 18 27 13 11 -4
22 -8 24 -9z m1012 -8 c0 -8 -20 -28 -44 -45 -43 -31 -45 -32 -51 -11 -8 24
-11 21 40 47 48 25 55 26 55 9z m-1036 -66 c10 -16 -5 -41 -25 -41 -14 0 -19
7 -19 25 0 18 5 25 19 25 11 0 22 -4 25 -9z m-14 -96 c0 -25 -14 -31 -38 -17
-18 12 -4 42 19 42 14 0 19 -7 19 -25z m-4 -71 c-3 -9 -6 -19 -6 -24 0 -4 -9
-6 -20 -3 -31 8 -26 43 6 43 20 0 25 -4 20 -16z m-6 -84 c0 -13 -7 -20 -20
-20 -13 0 -20 7 -20 20 0 13 7 20 20 20 13 0 20 -7 20 -20z m1249 -57 c2 -2
-3 -3 -12 -3 -9 0 -22 10 -28 23 l-12 22 24 -20 c13 -11 26 -21 28 -22z m156
-40 c-9 -97 -12 -105 -34 -91 -27 17 -24 133 4 147 35 17 37 13 30 -56z
m-1405 22 c0 -18 -5 -25 -20 -25 -35 0 -24 45 13 49 4 1 7 -10 7 -24z m1320 1
c5 -13 12 -40 15 -59 6 -33 5 -35 -14 -30 -15 4 -21 13 -21 32 0 15 -7 36 -15
48 -12 16 -12 22 -2 26 22 10 27 7 37 -17z m150 -106 c0 -85 -9 -99 -38 -60
-22 30 -22 30 -5 94 15 56 18 62 30 48 7 -10 12 -45 13 -82z m-1460 25 c0 -20
-5 -25 -25 -25 -18 0 -25 5 -25 18 0 24 8 32 32 32 13 0 18 -7 18 -25z m1257
9 c-3 -3 -12 -4 -19 -1 -8 3 -5 6 6 6 11 1 17 -2 13 -5z m-1247 -89 c0 -29
-34 -36 -44 -9 -8 21 1 34 25 34 14 0 19 -7 19 -25z m20 -74 c0 -20 -25 -35
-41 -25 -5 3 -9 14 -9 25 0 14 7 19 25 19 18 0 25 -5 25 -19z m1626 -25 c18 6
18 6 -1 -9 -21 -17 -47 -22 -58 -10 -4 3 1 12 11 19 10 7 19 8 23 3 3 -5 14
-7 25 -3z m-1608 -54 c3 -16 -2 -22 -16 -22 -24 0 -38 30 -20 42 19 12 33 4
36 -20z m21 -93 c-20 -12 -33 -6 -37 18 -4 28 30 36 42 10 7 -13 6 -21 -5 -28z
m38 -45 c5 -14 -11 -33 -28 -34 -10 0 -20 31 -13 41 9 15 34 10 41 -7z m37
-71 c4 -9 1 -20 -6 -25 -19 -12 -26 -10 -38 11 -7 14 -6 21 3 24 23 10 35 7
41 -10z m33 -90 c-17 -17 -19 -17 -33 2 -13 18 -13 21 3 32 14 11 20 11 32 -2
14 -13 13 -17 -2 -32z m52 -36 c16 -20 -20 -52 -37 -35 -16 16 -15 35 1 41 20
9 24 8 36 -6z m47 -62 c9 -23 -15 -48 -32 -34 -17 14 -18 36 -1 42 21 9 27 7
33 -8z m53 -58 c8 -11 6 -18 -8 -31 -16 -15 -19 -15 -31 -1 -10 12 -10 18 0
30 15 19 24 19 39 2z m61 -66 c0 -3 -4 -12 -9 -19 -7 -12 -12 -12 -29 -1 -20
12 -20 15 -5 31 12 14 19 15 30 7 7 -6 13 -14 13 -18z m396 13 c42 -20 54 -56
28 -85 -14 -16 -27 -20 -51 -16 -26 5 -33 2 -38 -14 -6 -19 -45 -27 -45 -9 0
16 58 140 65 140 4 0 22 -7 41 -16z m-342 -77 c-7 -20 -25 -22 -42 -5 -9 9 -8
16 5 30 14 16 19 16 30 5 8 -7 11 -21 7 -30z m490 -55 c4 -46 6 -85 3 -88 -10
-10 -37 9 -37 27 0 22 -51 40 -58 21 -4 -12 -52 -17 -52 -6 0 3 21 35 47 70
35 48 53 64 68 62 17 -3 21 -14 29 -86z m114 47 c17 -6 34 -19 37 -29 7 -21
-10 -60 -26 -60 -5 0 -3 -13 6 -30 20 -39 19 -49 -5 -43 -12 3 -28 22 -37 42
l-17 36 -4 -32 c-2 -26 -8 -33 -24 -33 -19 0 -20 4 -14 57 13 110 18 115 84
92z m-538 -39 c-13 -24 -23 -25 -40 -5 -19 22 5 48 31 34 15 -8 17 -14 9 -29z
m704 -33 c10 -34 21 -70 23 -79 8 -26 -33 -24 -47 2 -6 11 -19 20 -30 20 -10
0 -22 -9 -25 -20 -6 -19 -45 -29 -45 -12 0 4 12 40 27 80 24 63 31 72 53 72
22 0 27 -7 44 -63z m-634 8 c0 -30 -27 -44 -47 -24 -19 19 6 50 29 38 10 -5
18 -11 18 -14z m70 -40 c0 -14 -14 -35 -24 -35 -27 1 -38 17 -27 39 10 17 15
19 31 11 11 -6 20 -12 20 -15z m58 -23 c13 -9 6 -42 -8 -42 -27 0 -39 13 -29
31 11 21 18 23 37 11z m80 -45 c4 -20 -25 -34 -40 -19 -15 15 -1 44 19 40 10
-2 19 -11 21 -21z m79 -11 c7 -6 -11 -46 -21 -46 -23 0 -35 16 -29 38 4 18 10
21 27 16 11 -4 22 -7 23 -8z m479 -30 c0 -25 -4 -42 -8 -40 -4 3 -8 0 -8 -5 0
-6 -11 -11 -25 -11 -34 0 -37 47 -2 52 12 2 22 8 22 13 0 9 14 35 18 35 2 0 3
-20 3 -44z m-406 -7 c0 -22 -13 -31 -34 -23 -15 6 -22 35 -10 46 11 12 44 -5
44 -23z m75 -14 c0 -13 -8 -21 -22 -23 -19 -3 -23 1 -23 23 0 22 4 26 23 23
14 -2 22 -10 22 -23z m85 6 c0 -24 -14 -41 -35 -41 -18 0 -21 4 -17 25 3 18
11 25 28 25 13 0 24 -4 24 -9z m70 -21 c0 -15 -7 -20 -25 -20 -24 0 -34 18
-18 33 15 15 43 7 43 -13z m80 0 c0 -15 -7 -20 -25 -20 -18 0 -25 5 -25 20 0
15 7 20 25 20 18 0 25 -5 25 -20z"/>
<path d="M2093 3514 c-16 -7 -5 -34 13 -34 8 0 14 9 14 20 0 20 -5 23 -27 14z"/>
<path d="M2066 1574 c-8 -22 -8 -24 8 -24 21 0 28 16 12 29 -11 9 -15 8 -20
-5z"/>
<path d="M2190 1500 c-9 -16 -8 -20 5 -20 8 0 15 9 15 20 0 11 -2 20 -5 20 -2
0 -9 -9 -15 -20z"/>
<path d="M2320 1485 c0 -8 7 -15 15 -15 8 0 15 7 15 15 0 8 -7 15 -15 15 -8 0
-15 -7 -15 -15z"/>
<path d="M2467 1451 c-3 -14 0 -21 9 -21 16 0 18 9 5 28 -6 10 -10 9 -14 -7z"/>
<path d="M2685 3815 c0 -59 3 -82 12 -82 9 0 10 4 2 13 -7 8 -7 14 1 19 8 5 8
10 0 20 -8 10 -8 15 0 20 8 5 8 10 0 20 -8 10 -8 15 0 20 8 5 8 11 1 19 -7 8
-7 16 0 23 6 6 5 10 -3 10 -10 0 -13 -22 -13 -82z"/>
<path d="M2636 3559 c2 -4 -2 -9 -8 -12 -7 -3 -4 -5 8 -4 22 1 30 24 8 24 -7
0 -11 -4 -8 -8z"/>
<path d="M2653 3488 c-13 -18 -11 -378 2 -378 6 0 10 73 10 195 0 107 0 195
-1 195 -1 0 -6 -6 -11 -12z"/>
<path d="M2012 2777 c14 -11 15 -16 5 -27 -10 -10 -8 -10 11 -1 12 7 31 9 42
6 22 -7 37 12 21 28 -9 9 -11 8 -5 -6 6 -16 3 -17 -22 -11 -16 4 -38 11 -49
16 -18 8 -19 8 -3 -5z"/>
<path d="M2097 2737 c-6 -15 28 -51 76 -81 16 -10 26 -23 23 -31 -2 -7 1 -15
8 -18 9 -4 9 5 2 39 -6 26 -13 38 -16 29 -5 -13 -11 -11 -40 10 -18 14 -35 32
-36 41 -3 23 -11 27 -17 11z"/>
<path d="M2170 2736 c0 -8 4 -17 9 -20 5 -4 7 3 4 14 -6 23 -13 26 -13 6z"/>
<path d="M1625 2655 c-40 -19 -16 -19 26 0 19 8 27 14 19 14 -8 0 -28 -7 -45
-14z"/>
<path d="M1645 2604 c-30 -25 -30 -25 -3 -13 15 6 29 18 32 25 7 18 6 18 -29
-12z"/>
<path d="M1558 2499 c-10 -10 -13 -19 -7 -19 7 0 8 -5 3 -13 -5 -7 -1 -4 9 6
9 11 17 25 17 33 0 17 -1 17 -22 -7z"/>
<path d="M1678 2145 c5 -41 8 -44 14 -10 3 14 0 29 -6 34 -9 7 -11 1 -8 -24z"/>
<path d="M2455 2170 c-3 -5 -1 -10 4 -10 6 0 11 5 11 10 0 6 -2 10 -4 10 -3 0
-8 -4 -11 -10z"/>
<path d="M1717 2139 c7 -7 15 -10 18 -7 3 3 -2 9 -12 12 -14 6 -15 5 -6 -5z"/>
<path d="M1753 2107 c0 -8 6 -14 14 -14 9 0 10 4 2 14 -6 7 -12 13 -14 13 -1
0 -2 -6 -2 -13z"/>
<path d="M1770 2062 c0 -5 7 -17 16 -28 15 -18 15 -18 5 2 -6 12 -7 24 -4 28
3 3 1 6 -5 6 -7 0 -12 -4 -12 -8z"/>
<path d="M1846 2035 c4 -9 9 -13 12 -11 3 3 12 0 20 -7 13 -9 14 -9 8 0 -4 7
-16 18 -26 23 -16 9 -18 8 -14 -5z"/>
<path d="M2822 1981 c-7 -4 -25 -6 -40 -4 -24 3 -25 2 -6 -6 12 -5 43 -12 70
-16 44 -5 47 -5 26 8 -12 7 -19 16 -16 20 10 10 -18 8 -34 -2z"/>
<path d="M2188 1973 c6 -2 18 -2 25 0 6 3 1 5 -13 5 -14 0 -19 -2 -12 -5z"/>
<path d="M2920 1950 l-25 -8 27 -1 c15 -1 30 4 33 9 7 11 0 11 -35 0z"/>
<path d="M2198 1873 c7 -3 16 -2 19 1 4 3 -2 6 -13 5 -11 0 -14 -3 -6 -6z"/>
<path d="M2605 1448 c9 -51 9 -52 31 -44 11 4 13 10 7 19 -11 14 -11 27 1 46
6 10 5 12 -2 7 -7 -4 -12 -2 -12 3 0 6 -7 11 -16 11 -13 0 -15 -7 -9 -42z"/>
<path d="M2643 1445 c0 -8 4 -12 9 -9 5 3 6 10 3 15 -9 13 -12 11 -12 -6z"/>
<path d="M2689 1268 c-7 -19 -2 -161 6 -165 5 -4 7 -3 3 2 -4 4 -3 14 3 21 7
8 7 14 -1 19 -8 5 -8 10 0 20 8 10 8 15 0 20 -8 5 -8 10 0 20 8 10 8 15 0 20
-8 5 -8 10 0 20 8 9 8 15 0 20 -5 3 -11 5 -11 3z"/>
</g>
</svg>
